<?xml version="1.0" encoding="UTF-8"?>
<svg xmlns="http://www.w3.org/2000/svg" xmlns:xlink="http://www.w3.org/1999/xlink" width="85px" height="85px" viewBox="0 0 85 85" version="1.1">
<g id="surface1">
<path style=" stroke:none;fill-rule:nonzero;fill:rgb(94.509804%,66.666669%,18.431373%);fill-opacity:1;" d="M 71.195312 42.777344 C 71.195312 27.269531 58.621094 14.699219 43.113281 14.699219 C 27.605469 14.699219 15.035156 27.269531 15.035156 42.777344 C 15.035156 58.285156 27.605469 70.855469 43.113281 70.855469 C 58.621094 70.855469 71.195312 58.285156 71.195312 42.777344 Z M 71.195312 42.777344 "/>
<path style=" stroke:none;fill-rule:nonzero;fill:rgb(10.980392%,6.666667%,3.921569%);fill-opacity:1;" d="M 45.613281 60.054688 C 45.613281 57.226562 43.320312 54.9375 40.496094 54.9375 C 37.667969 54.9375 35.375 57.226562 35.375 60.054688 C 35.375 62.878906 37.667969 65.171875 40.496094 65.171875 C 43.320312 65.171875 45.613281 62.878906 45.613281 60.054688 Z M 45.613281 60.054688 "/>
<path style=" stroke:none;fill-rule:nonzero;fill:rgb(10.980392%,6.666667%,3.921569%);fill-opacity:1;" d="M 32.53125 23.132812 C 32.53125 21.902344 31.535156 20.90625 30.308594 20.90625 C 29.078125 20.90625 28.082031 21.902344 28.082031 23.132812 C 28.082031 24.359375 29.078125 25.355469 30.308594 25.355469 C 31.535156 25.355469 32.53125 24.359375 32.53125 23.132812 Z M 32.53125 23.132812 "/>
<path style=" stroke:none;fill-rule:nonzero;fill:rgb(100%,100%,100%);fill-opacity:1;" d="M 53.914062 62.695312 C 53.914062 61.46875 52.917969 60.472656 51.6875 60.472656 C 50.460938 60.472656 49.464844 61.46875 49.464844 62.695312 C 49.464844 63.925781 50.460938 64.921875 51.6875 64.921875 C 52.917969 64.921875 53.914062 63.925781 53.914062 62.695312 Z M 53.914062 62.695312 "/>
<path style=" stroke:none;fill-rule:nonzero;fill:rgb(100%,100%,100%);fill-opacity:1;" d="M 46.292969 25.355469 C 46.292969 22.234375 43.761719 19.703125 40.636719 19.703125 C 37.515625 19.703125 34.984375 22.234375 34.984375 25.355469 C 34.984375 28.476562 37.515625 31.011719 40.636719 31.011719 C 43.761719 31.011719 46.292969 28.476562 46.292969 25.355469 Z M 46.292969 25.355469 "/>
<path style=" stroke:none;fill-rule:nonzero;fill:rgb(10.980392%,6.666667%,3.921569%);fill-opacity:1;" d="M 55.042969 21.941406 L 54.085938 21.222656 L 52.933594 20.519531 L 52.042969 20.800781 C 51.621094 20.933594 49.703125 21.253906 47.683594 21.53125 L 47.660156 21.535156 C 40.539062 22.632812 36.371094 24.996094 34.132812 26.785156 C 33.058594 27.640625 32.308594 28.453125 31.796875 29.105469 C 30.609375 28.554688 29.15625 28.273438 27.460938 28.273438 C 24.230469 28.273438 20.136719 29.273438 15.292969 31.246094 C 13.261719 32.074219 10.125 33.621094 8.984375 34.191406 L 8.617188 42.050781 L 26 65.378906 L 53.175781 55.925781 L 57.46875 54.472656 L 78.503906 43.894531 L 78.945312 41.507812 Z M 29.488281 58.308594 L 11.753906 35.308594 C 14.6875 33.84375 21.855469 30.554688 27.039062 30.554688 C 28.792969 30.554688 30.136719 30.949219 31.039062 31.730469 L 31.355469 32.003906 L 50.523438 51.984375 C 48.59375 51.878906 43.078125 52.226562 38.859375 53.953125 Z M 54 51.730469 L 33.792969 30.644531 C 34.125 30.128906 34.804688 29.242188 36.03125 28.265625 C 37.925781 26.753906 41.503906 24.746094 47.789062 23.773438 L 47.796875 23.773438 C 48.472656 23.679688 50.492188 23.390625 51.796875 23.132812 L 74.03125 41.917969 C 72.128906 42.417969 69.367188 43.214844 66.464844 44.296875 C 63.359375 45.457031 60.691406 46.71875 58.535156 48.039062 C 56.628906 49.214844 55.105469 50.453125 54 51.730469 Z M 54 51.730469 "/>
<path style=" stroke:none;fill-rule:nonzero;fill:rgb(100%,100%,100%);fill-opacity:1;" d="M 29.488281 58.308594 L 11.753906 35.308594 C 14.6875 33.84375 21.855469 30.554688 27.039062 30.554688 C 28.792969 30.554688 30.136719 30.949219 31.039062 31.730469 L 31.355469 32.003906 L 50.523438 51.984375 C 48.59375 51.878906 43.078125 52.226562 38.859375 53.953125 Z M 29.488281 58.308594 "/>
<path style=" stroke:none;fill-rule:nonzero;fill:rgb(100%,100%,100%);fill-opacity:1;" d="M 54 51.730469 L 33.792969 30.644531 C 34.125 30.128906 34.804688 29.242188 36.03125 28.265625 C 37.925781 26.753906 41.503906 24.746094 47.789062 23.773438 L 47.796875 23.773438 C 48.472656 23.679688 50.492188 23.390625 51.796875 23.132812 L 74.03125 41.917969 C 72.128906 42.417969 69.367188 43.214844 66.464844 44.296875 C 63.359375 45.457031 60.691406 46.71875 58.535156 48.039062 C 56.628906 49.214844 55.105469 50.453125 54 51.730469 Z M 54 51.730469 "/>
<path style=" stroke:none;fill-rule:nonzero;fill:rgb(50.588238%,72.941178%,43.137255%);fill-opacity:1;" d="M 80.039062 22.972656 C 80.039062 19.898438 77.546875 17.40625 74.472656 17.40625 C 71.398438 17.40625 68.90625 19.898438 68.90625 22.972656 C 68.90625 26.046875 71.398438 28.539062 74.472656 28.539062 C 77.546875 28.539062 80.039062 26.046875 80.039062 22.972656 Z M 80.039062 22.972656 "/>
<path style=" stroke:none;fill-rule:nonzero;fill:rgb(0.784314%,0.392157%,0.784314%);fill-opacity:1;" d="M 7.410156 53.308594 C 6.339844 49.828125 5.796875 46.203125 5.796875 42.5 C 5.796875 37.539062 6.769531 32.722656 8.683594 28.195312 C 10.535156 23.820312 13.183594 19.886719 16.5625 16.511719 C 19.9375 13.136719 23.867188 10.484375 28.246094 8.632812 C 32.773438 6.71875 37.585938 5.746094 42.550781 5.746094 C 47.511719 5.746094 52.324219 6.71875 56.855469 8.632812 C 61.230469 10.484375 65.160156 13.136719 68.539062 16.511719 C 68.953125 16.925781 69.355469 17.347656 69.746094 17.78125 C 70.285156 17.292969 70.898438 16.886719 71.566406 16.582031 C 64.441406 8.609375 54.082031 3.589844 42.550781 3.589844 C 21.0625 3.589844 3.640625 21.011719 3.640625 42.5 C 3.640625 46.644531 4.289062 50.632812 5.492188 54.378906 C 6.082031 53.953125 6.726562 53.589844 7.410156 53.308594 Z M 7.410156 53.308594 "/>
<path style=" stroke:none;fill-rule:nonzero;fill:rgb(0.784314%,0.392157%,0.784314%);fill-opacity:1;" d="M 78.847656 28.464844 C 78.28125 28.917969 77.644531 29.285156 76.953125 29.546875 C 78.511719 33.675781 79.300781 38.027344 79.300781 42.5 C 79.300781 47.460938 78.332031 52.277344 76.414062 56.804688 C 74.5625 61.179688 71.914062 65.113281 68.539062 68.488281 C 65.160156 71.863281 61.230469 74.515625 56.855469 76.367188 C 52.324219 78.28125 47.511719 79.253906 42.550781 79.253906 C 37.585938 79.253906 32.773438 78.28125 28.246094 76.367188 C 24.117188 74.621094 20.390625 72.164062 17.148438 69.0625 C 16.597656 69.542969 15.988281 69.960938 15.335938 70.304688 C 22.351562 77.171875 31.953125 81.410156 42.550781 81.410156 C 64.039062 81.410156 81.457031 63.988281 81.457031 42.5 C 81.457031 37.550781 80.53125 32.820312 78.847656 28.464844 Z M 78.847656 28.464844 "/>
<path style=" stroke:none;fill-rule:nonzero;fill:rgb(23.137255%,47.058824%,71.764708%);fill-opacity:1;" d="M 18.417969 61.988281 C 18.417969 57.882812 15.089844 54.550781 10.980469 54.550781 C 6.871094 54.550781 3.542969 57.882812 3.542969 61.988281 C 3.542969 66.097656 6.871094 69.429688 10.980469 69.429688 C 15.089844 69.429688 18.417969 66.097656 18.417969 61.988281 Z M 18.417969 61.988281 "/>
</g>
</svg>
